<svg xmlns="http://www.w3.org/2000/svg" xml:space="preserve" viewBox="30 178 427 140"><path fill="none" d="M0 0h500v500H0z"/><path fill="#7d45f6" d="M161.5 250.9c-1-2.6-2.6-4.8-4.7-6.6s-4.8-3.3-8-4.3c-3.3-1-7.1-1.5-11.7-1.5-4.5 0-8.3.5-11.5 1.6s-5.8 2.4-7.8 4-3.5 3.2-4.4 4.9c-1 1.7-1.5 3.1-1.5 4.3-.1.7.1 1.2.5 1.6s1 .6 1.7.6h14.3c1.1 0 2-.4 2.6-1.1.7-1 1.6-1.8 2.4-2.3.9-.5 2-.8 3.5-.8 2 0 3.4.5 4 1.6s1 2.6 1 4.7v.7l-11.7 1.8c-6.6 1.1-11.9 3-15.9 5.8s-5.9 6.6-5.9 11.5c0 3 .8 5.7 2.5 8.1q2.55 3.6 6.9 5.7c3 1.4 6.3 2.1 10 2.1 2.4 0 4.5-.3 6.4-.9q2.85-.9 5.1-2.4c1.5-1 2.6-2.2 3.5-3.6v3.3c0 .7.3 1.4.8 1.9s1.2.8 1.8.8h14.8c.8 0 1.4-.3 1.9-.8s.8-1.1.8-1.9v-30.1c.1-3.2-.4-6.1-1.4-8.7M142.3 270c0 2.2-.4 4.1-1.1 5.6-.8 1.5-1.7 2.6-3 3.3s-2.7 1.1-4.4 1.1c-1.1 0-2-.2-2.9-.6-.8-.4-1.5-.9-2-1.5s-.7-1.3-.7-2.1q0-1.65 1.5-3c1-.9 2.8-1.6 5.3-2.1l7.3-1.4zm43.8-29.8c-.5-.5-1.2-.8-1.9-.8h-15c-.7 0-1.4.3-1.9.8s-.8 1.1-.8 1.9v47.5c0 .7.3 1.4.8 1.9s1.1.8 1.9.8h15c.7 0 1.4-.3 1.9-.8s.8-1.1.8-1.9v-47.5c0-.7-.3-1.4-.8-1.9m-.2-22.6c-.5-.5-1.2-.8-1.9-.8h-14.6a2.73 2.73 0 0 0-2.7 2.7v10.7c0 .7.3 1.4.8 1.9s1.1.8 1.9.8H184c.7 0 1.4-.3 1.9-.8s.8-1.1.8-1.9v-10.7c0-.7-.3-1.3-.8-1.9m24.5 3.3c-.5-.5-1.1-.8-1.8-.8h-15.1c-.8 0-1.4.3-1.9.8s-.8 1.1-.8 1.9v66.8c0 .7.2 1.4.8 1.9.5.5 1.1.8 1.9.8h15.1c.7 0 1.3-.3 1.8-.8s.8-1.1.8-1.9v-66.8c0-.7-.3-1.4-.8-1.9"/><path fill="#7d45f6" d="M257.3 276.7c-.5-.5-1.1-.8-1.9-.8h-8.5c-1.8 0-3-.6-3.9-1.7-.8-1.1-1.2-2.7-1.2-4.6V255h12.8c.7 0 1.4-.3 1.9-.8s.8-1.1.8-1.9V242c0-.7-.3-1.4-.8-1.9s-1.1-.8-1.9-.8h-12.8v-16.7c0-.7-.2-1.4-.8-1.9-.5-.5-1.1-.8-1.9-.8h-14.7c-.7 0-1.4.3-1.9.8s-.8 1.1-.8 1.9v16.7h-8c-.8 0-1.4.3-1.9.8s-.8 1.1-.8 1.9v10.3c0 .7.2 1.4.8 1.9.5.5 1.1.8 1.9.8h8v16.3c0 5.1 1 9.2 2.9 12.2q2.85 4.65 8.1 6.6c3.5 1.4 7.5 2 12.1 2h10.4c.8 0 1.4-.3 1.9-.8s.8-1.1.8-1.9v-11.1c.2-.5-.1-1.1-.6-1.6"/><path fill="#7d45f6" d="M313.9 261.2c-.3-4.9-1.6-9-3.9-12.4s-5.5-6-9.6-7.7c-4.1-1.8-9-2.6-14.7-2.6s-10.6.9-14.7 2.6c-4.1 1.8-7.3 4.3-9.6 7.7s-3.6 7.5-3.9 12.4c-.1 1.4-.1 3-.1 4.7s0 3.3.1 4.7q.45 7.2 3.6 12.3c2.2 3.4 5.3 6 9.4 7.8s9.1 2.7 15.1 2.7 11-.9 15.1-2.7 7.2-4.4 9.4-7.8q3.3-5.1 3.6-12.3c.1-1.4.2-3 .2-4.7.2-1.7.1-3.3 0-4.7m-29.7-3.7v-.2q.3-.9.9-1.5c1.1-1.2 2.8-1.7 4.5-1.1 1 .4 1.8 1 2.3 1.9s.7 2 .4 3c0 .2-.1.4-.2.5-.8 2.2-3.2 3.3-5.4 2.6-1.9-.7-3.1-3.1-2.5-5.2m-9.4.2c.7-1.9 2.9-3 4.8-2.3.9.3 1.7 1.1 2.1 1.9.2.3.3.7.4 1.1.1.6.1 1.2-.2 1.8-.7 1.8-2.2 2.7-3.9 2.5-.3 0-.6-.1-.9-.2-.1 0-.1 0-.2-.1-1.9-.6-2.8-2.7-2.1-4.7m16.7 16.5c-1 2.7-3.9 4.4-6.8 3.8-.4-.1-.7-.2-1.1-.3-.6-.2-1.2-.5-1.9-.7-.9-.4-1.8-.6-2.7-1-2.3-1.1-3.6-3.6-3.4-6.1.1-1.1.5-2.1 1.1-2.9.5-.6 1-1.1 1.7-1.6 2.6-1.8 5.5-2.1 8.4-.8 3.1 1.4 4.9 4 5 7.4v.1q.15 1.05-.3 2.1m7.8-8-.4 1.1c-.4.7-1 1.3-1.7 1.7-.8.3-1.5.4-2.2.3-.4 0-.8-.2-1.1-.4-.3-.1-.5-.3-.8-.5-1.2-1-1.5-2.3-1.2-3.8.2-1.1 1.1-2.1 2.1-2.6.5-.2 1.1-.4 1.7-.3.4 0 .8.1 1.2.2 1.6.6 2.6 2.2 2.4 3.8zm73.6-4.2c-.2-4-.8-7.5-1.9-10.5s-2.6-5.4-4.5-7.4c-1.9-1.9-4.1-3.4-6.7-4.3-2.5-1-5.4-1.4-8.6-1.4-3.6 0-6.7.7-9.2 2s-4.6 3-6.2 5v-3.3c0-.7-.2-1.4-.8-1.9-.5-.5-1.1-.8-1.9-.8h-14.3c-.8 0-1.4.3-1.9.8s-.8 1.1-.8 1.9v66.8c0 .7.2 1.4.8 1.9.5.5 1.1.8 1.9.8h15.6c.7 0 1.3-.3 1.8-.8s.8-1.1.8-1.9v-22.1c1.6 2.2 3.5 3.9 5.9 4.9s5.1 1.6 8.2 1.6c3.2 0 6.1-.5 8.6-1.5 2.6-1 4.8-2.5 6.7-4.5s3.4-4.5 4.5-7.4 1.7-6.3 1.8-10.1c.1-1.5.1-2.8.1-4 .2-1.1.2-2.4.1-3.8m-21.4 7.1c-.1 1.6-.4 3.1-.9 4.3-.4 1.3-1.1 2.2-2.1 3-1 .7-2.3 1.1-4.1 1.1-1.7 0-3-.3-4.1-1-1-.7-1.8-1.6-2.3-2.6-.5-1.1-.8-2.3-.9-3.8-.1-1.4-.1-2.7-.1-3.8s0-2.4.1-3.8c.1-1.5.3-2.8.8-4.1.4-1.2 1.2-2.2 2.2-2.9 1.1-.8 2.5-1.1 4.2-1.1 1.8 0 3.1.4 4.1 1.1s1.7 1.7 2.1 2.9c.4 1.3.7 2.7.9 4.3.3 2.1.3 4.2.1 6.4m43.3-28.9c-.5-.5-1.2-.8-1.9-.8h-15c-.8 0-1.4.3-1.9.8s-.8 1.1-.8 1.9v47.5c0 .7.2 1.4.8 1.9.5.5 1.1.8 1.9.8h15c.8 0 1.4-.3 1.9-.8s.8-1.1.8-1.9v-47.5c0-.7-.2-1.4-.8-1.9m-.2-22.6c-.5-.5-1.2-.8-1.9-.8h-14.6c-.8 0-1.4.3-1.9.8s-.8 1.2-.8 1.9v10.7c0 .7.2 1.4.8 1.9.5.5 1.1.8 1.9.8h14.6c.8 0 1.4-.3 1.9-.8s.8-1.1.8-1.9v-10.7c0-.7-.2-1.3-.8-1.9m54.8 33.3c-1-2.6-2.6-4.8-4.7-6.6s-4.8-3.3-8-4.3c-3.3-1-7.1-1.5-11.7-1.5-4.5 0-8.3.5-11.5 1.6s-5.8 2.4-7.8 4-3.5 3.2-4.4 4.9-1.5 3.1-1.5 4.3c-.1.7.1 1.2.5 1.6s1 .6 1.7.6h14.3c1.1 0 2-.4 2.6-1.1.7-1 1.6-1.8 2.4-2.3.9-.5 2-.8 3.4-.8 2 0 3.4.5 4 1.6s1 2.6 1 4.7v.7l-11.7 1.8c-6.6 1.1-11.9 3-15.9 5.8s-5.9 6.6-5.9 11.5c0 3 .8 5.7 2.5 8.1q2.55 3.6 6.9 5.7c2.9 1.4 6.3 2.1 10 2.1 2.4 0 4.5-.3 6.4-.9q2.85-.9 5.1-2.4c1.4-1 2.6-2.2 3.5-3.6v3.3c0 .7.3 1.4.8 1.9s1.1.8 1.8.8H448c.7 0 1.4-.3 1.9-.8s.8-1.1.8-1.9v-30.1c.3-3.2-.2-6.1-1.3-8.7M430.3 270c0 2.2-.4 4.1-1.1 5.6q-1.05 2.25-3 3.3c-1.3.7-2.7 1.1-4.4 1.1-1.1 0-2-.2-2.9-.6-.8-.4-1.5-.9-2-1.5s-.7-1.3-.7-2.1q0-1.65 1.5-3c1-.9 2.8-1.6 5.3-2.1l7.3-1.4zM47.8 238.8c-1.4.1-2.8-.2-4-.7-1.3-.5-2.4-1.3-3.4-2.2s-1.9-2-2.5-3.3c-.6-1.2-1-2.7-.8-4 0-.5.5-.8.9-.8.3 0 .5.2.7.4q.9 1.5 1.8 2.7c.7.8 1.4 1.6 2.2 2.3q2.4 2.1 5.4 3.6h.1c.5.2.7.8.5 1.3-.2.4-.5.6-.9.7m4.6-4.9c-.3.3-.8.5-1.3.3-1.8-.5-3.5-1.6-4.8-3-1.3-1.3-2.4-3-3.1-4.7s-1.1-3.6-1.1-5.5.5-3.8 1.5-5.4c.3-.5 1-.7 1.6-.4.3.2.5.5.5.9v.1c.1 1.6.2 3 .5 4.5.3 1.4.7 2.8 1.3 4.1s1.2 2.6 2 3.8 1.7 2.3 2.8 3.4l.1.1c.5.5.5 1.3 0 1.8m68.1-10.1v13.6c0 .7-.3 1.4-.8 1.9s-1.1.8-1.9.8h-17.5v49.6c0 .7-.3 1.4-.8 1.9s-1.1.8-1.9.8H80.9c-.7 0-1.4-.3-1.9-.8s-.8-1.1-.8-1.9v-18.9l.1-30.3v-.7c-8.4.3-15.4-1.9-20.3-7.4-8.5-8.8-10.2-18.7-8.1-29.2.4-2.2 3.2-2.9 4.6-1.3.1.2.4.3.6.3.3 0 .6-.2.7-.5 1.1-3.6 5-13.9 14.3-17.8 5-2.1 9 4.5 4.8 8-3.8 3.1-5.8 7.6-5.5 13.5.1 2.2.5 4.4 1.3 6.4v.1c2.2 5.7 7.7 9.4 13.8 9.4h33.3c.7 0 1.4.2 1.9.8.5.4.8 1 .8 1.7"/></svg>