<svg xmlns="http://www.w3.org/2000/svg" viewBox="0 0 500 500" fill="#FFFFFF">
<g class="mark-cat-bounce">
              <path d="M211.9,363.7l8.6,42.7H213l-9.3-46.3c5.7-3,10.7-7.1,14.8-12.2c8.6-10.6,11.7-22.8,10.5-36.3
                c-0.7-7.9-2.9-15.4-6-22.7c-1.1-2.5-1.1-4.8-0.7-7.3c1.7-10.2,3.7-20.3,3.5-30.7c0-2.2,0.1-4.5,0-6.7c-0.2-3.2-0.9-6.4-2.1-9.5
                c-1.6-3.8-3.9-5.5-7.7-5.5c-0.5,0-0.9,0-1.4,0.1c-2.6,0.3-5,1.3-7.3,2.5c-7.3,3.9-13.6,9-19.7,14.5c-1.8,1.6-2.5,2.3-3.5,2.3
                c-0.8,0-1.7-0.4-3.4-1c-8-3.2-16.4-4.7-25-4.7c-0.3,0-0.6,0-0.9,0c-8.4,0.1-16.6,1.8-24.4,4.9c-0.6,0.2-1.2,0.5-1.7,0.7
                c-0.5,0.2-0.9,0.3-1.3,0.3c-0.7,0-1.3-0.3-1.9-0.9c-3.6-3.3-7.3-6.5-11.2-9.4c-4.5-3.4-9.1-6.7-14.5-8.5
                c-1.7-0.6-3.2-0.8-4.5-0.8c-3.9,0-6.4,2.3-8.1,7.2c-2.4,7-2,14.2-1.5,21.4c0.5,7.9,2,15.7,3.4,23.6c0.3,2,0.8,4-0.1,6
                c-0.8,1.8-1.5,3.6-2.2,5.5c-3.7,9.8-5.6,19.9-4.3,30.5c1,8.5,4,16.2,9.2,23c3.3,4.3,7.1,7.8,11.4,10.8l-13.1,49.2h-7.6
                l12.4-46.3c-3.4-2.8-6.3-5.9-8.9-9.2c-5.8-7.7-9.4-16.6-10.6-26.6c-1.3-10.7,0.3-21.8,4.8-33.9c0.8-2,1.5-3.9,2.2-5.6
                c0-0.4-0.1-1.1-0.2-1.6l-0.6-3.3c-1.3-7-2.5-14.2-3-21.6c-0.4-7.4-0.9-15.8,1.9-24.2c3.6-10.6,11-12.2,15-12.2
                c2.1,0,4.4,0.4,6.8,1.2c6.4,2.1,11.5,5.7,16.6,9.5c3.5,2.6,6.8,5.5,9.7,8.1c1.2-0.5,2.5-0.9,3.7-1.3c7.3-2.4,14.9-3.7,22.6-3.8
                c0.3,0,0.7,0,1,0c9.4,0,18.6,1.7,27.3,5.1c6.1-5.4,12.8-11,20.8-15.2c2.5-1.3,6-2.9,10-3.3c0.7-0.1,1.5-0.1,2.1-0.1
                c4.7,0,11,1.8,14.5,10.1c1.5,3.6,2.3,7.4,2.6,11.8c0.1,1.9,0.1,3.6,0.1,5.3c0,0.6,0,1.2,0,1.9c0.2,9.8-1.4,19.2-3,28.4
                c-0.2,1.2-0.4,2.4-0.6,3.6c-0.3,1.6-0.1,2.4,0.2,3.2c3.7,8.6,5.9,16.7,6.6,25c1.4,15.9-2.7,29.9-12.1,41.5
                C220.6,356.9,216.5,360.6,211.9,363.7z"/>
             </g>
</svg>
