<svg xmlns="http://www.w3.org/2000/svg" viewBox="0 0 500 500" fill="#FFFFFF">
<path d="M391.2,405l0.1,1.4h-0.5C391,405.9,391.1,405.5,391.2,405z"/>
              <path d="M403.9,131.3c-0.3,2.8-1.6,5.3-3.5,7.1c-1.9,1.8-4.5,2.9-7.3,3l-2,0c-9.2,0.2-19.2,6.1-18,25.9l11.3,147.9
                c-0.5,0.4-1,0.8-1.4,1.3l-20,20.4c-1.7-0.7-3.5-1-5.3-1c-4.7,0-9.1,2.3-11.8,6.2c-13,19-12.5,53.8-11.9,64.4h-39
                c1.9-4.8,3.3-9.7,4.4-14.8c1.4-6.7,2.1-13.6,2.1-20.5c0-0.9,0-1.7-0.1-2.6l-0.1-2.6c0-1.7-0.3-3.5-0.5-5.2
                c-0.1-0.9-0.2-1.7-0.3-2.6l-0.5-2.6l-0.5-2.6c-0.2-0.9-0.4-1.7-0.6-2.5c-1.6-6.7-3.7-12.8-5.7-18.4c-2-5.6-3.9-10.8-5.2-15.7
                c-0.7-2.5-1.1-4.7-1.5-6.9c-0.3-2.2-0.5-4.4-0.5-6.4c0-4.1,0.7-7.7,1.9-10.2c0.3-0.6,0.6-1.2,1-1.7c0.2-0.3,0.4-0.5,0.5-0.7
                l0.3-0.4c0.1-0.1,0.2-0.1,0.3-0.2c0.6-0.7,1.4-1.3,2.4-1.8c0.4-0.3,1-0.5,1.5-0.7c0.3-0.1,0.6-0.2,0.9-0.3
                c0.3-0.1,0.6-0.1,0.9-0.2c1.2-0.2,2.4-0.4,3.6-0.3c1.2,0.1,2.3,0.3,3.1,0.7c0.9,0.4,1.5,0.8,2,1.3c1.1,0.9,2.4,1.9,3.7,2.6
                c9.9,5.5,22.5,1.9,28-8c5.5-10,1.9-22.5-8.1-28l-2.5-1.4c-4.6-2.5-9.4-4.2-14.3-5.2c-4.8-1-9.7-1-14.3-0.6
                c-4.7,0.4-9.2,1.5-13.5,3.2c-1.1,0.4-2.2,0.8-3.2,1.3c-1,0.5-2.1,1-3.1,1.6c-2,1.2-4.1,2.4-5.9,3.9c-1.9,1.4-3.7,3.1-5.4,4.8
                c-0.8,0.9-1.6,1.8-2.4,2.7c-0.8,0.9-1.5,2-2.2,3c-0.3,0.5-0.7,1-1,1.5l-0.9,1.5c-0.6,1-1.2,2-1.6,3.1c-1,2.1-1.9,4.2-2.6,6.3
                c-1.4,4.3-2.2,8.5-2.5,12.6c-0.4,4.1-0.3,8,0.1,11.8c0.4,3.8,1,7.5,1.9,11c0.9,3.5,1.9,7,3.1,10.1c2.3,6.3,4.8,11.9,7.1,17.2
                c2.3,5.3,4.4,10.1,5.8,14.8c1.4,4.6,2.4,9.2,2.7,14c0.9,11.5-1.4,23.6-6.5,34.2H213l-9.3-46.3c5.7-3,10.7-7.1,14.8-12.2
                c8.6-10.6,11.7-22.8,10.5-36.3c-0.7-7.9-2.9-15.4-6-22.7c-1.1-2.5-1.1-4.8-0.7-7.3c1.7-10.2,3.7-20.3,3.5-30.7
                c0-2.2,0.1-4.5,0-6.7c-0.2-3.2-0.9-6.4-2.1-9.5c-1.6-3.8-3.9-5.5-7.7-5.5c-0.5,0-0.9,0-1.4,0.1c-2.6,0.3-5,1.3-7.3,2.5
                c-7.3,3.9-13.6,9-19.7,14.5c-1.8,1.6-2.5,2.3-3.5,2.3c-0.8,0-1.7-0.4-3.4-1c-8-3.2-16.4-4.7-25-4.7c-0.3,0-0.6,0-0.9,0
                c-8.4,0.1-16.6,1.8-24.4,4.9c0.6-2.8,1.1-5.6,1.7-8.5c0.5-2.7,1.1-5.5,1.7-8.2c11.3-54.6,24.8-108.2,38.7-140.1
                c3.3-7.5,13.5-8.7,18.4-2.1c11.9,15.9,30,43,32.6,63.7l87.5-0.7l17.8-41.7c3.2-7.4,10.8-11.9,18.8-11l35.2,5.8
                C395.6,106.6,405.1,118.2,403.9,131.3z"/>
              <path d="M229.8,357.2c10.7-13.2,15.3-28.9,13.7-46.8c-0.8-8.8-3-17.5-6.8-26.5c0.2-1.1,0.4-2.3,0.6-3.4
                c1.6-9.4,3.3-19.2,3.1-29.6c0-0.6,0-1.1,0-1.7c0-1.8,0.1-3.7-0.1-5.9c-0.4-5.2-1.4-9.8-3.2-14.1c-3.8-9.3-11.6-14.6-21.2-14.6
                c-0.9,0-1.9,0-2.9,0.2c-5.3,0.5-9.6,2.5-12.7,4.1c-7.3,3.8-13.6,8.7-19,13.4c-8.3-2.7-16.9-4.1-25.7-4.1c-0.4,0-0.7,0-1.1,0
                c-7.1,0.1-14.1,1.1-20.8,3c-1.3,0.3-2.5,0.7-3.8,1.1c-2.2-1.9-4.5-3.8-6.9-5.6c-5.4-4-11.3-8.2-18.7-10.6
                c-3.3-1.1-6.2-1.6-9.2-1.6c-4.9,0-16.8,1.7-22,17.2c-3.3,9.8-2.7,19.3-2.3,27c0.5,7.8,1.8,15.2,3.1,22.4
                c0.2,0.9,0.3,1.8,0.5,2.7c-0.5,1.2-1,2.5-1.5,3.9c-4.9,13.2-6.6,25.4-5.2,37.3c1.4,11.3,5.4,21.4,12,30.2c2,2.6,4.1,5,6.5,7.3
                l-11.7,43.8h15.2l13.1-49.2c-4.3-3-8.2-6.5-11.4-10.8c-5.2-6.8-8.1-14.5-9.2-23c-1.3-10.5,0.7-20.6,4.3-30.5
                c0.7-1.8,1.4-3.7,2.2-5.5c0.9-2,0.4-4,0.1-6c-1.4-7.8-2.9-15.6-3.4-23.6c-0.4-7.2-0.8-14.4,1.5-21.4c1.6-4.9,4.2-7.2,8.1-7.2
                c1.3,0,2.9,0.3,4.5,0.8c5.4,1.8,10,5.1,14.5,8.5c3.9,2.9,7.6,6.1,11.2,9.4c0.7,0.6,1.2,0.9,1.9,0.9c0.4,0,0.8-0.1,1.3-0.3
                c0.6-0.3,1.2-0.5,1.7-0.7c7.8-3.2,16-4.8,24.4-4.9c0.3,0,0.6,0,0.9,0c8.6,0,16.9,1.6,25,4.7c1.7,0.7,2.6,1,3.4,1
                c1,0,1.8-0.7,3.5-2.3c6.1-5.5,12.4-10.7,19.7-14.5c2.3-1.2,4.7-2.3,7.3-2.5c0.5-0.1,1-0.1,1.4-0.1c3.7,0,6.1,1.7,7.7,5.5
                c1.3,3,1.9,6.2,2.1,9.5c0.2,2.2,0,4.5,0,6.7c0.2,10.4-1.8,20.5-3.5,30.7c-0.4,2.5-0.4,4.8,0.7,7.3c3.1,7.3,5.3,14.8,6,22.7
                c1.2,13.5-1.9,25.7-10.5,36.3c-4.1,5.1-9.1,9.1-14.8,12.2l9.3,46.3h15l-7.9-39.5C223.6,364.1,226.9,360.8,229.8,357.2z"/>
              <g style="opacity:.6">
                <path d="M455,359.5c-22.1,9.2-41,24.5-56,46.9h-8.2c0.1-0.5,0.3-0.9,0.4-1.4c6.1-20.8,15.3-38.4,27.9-53l2-1.2
                  c0.6-0.3,1.2-0.5,1.7-0.5c1.8,0,3.4,1.4,3.4,3.3l27.9,0.9C456.8,354.6,457.5,358.4,455,359.5z"/>
              </g>
              <path d="M432,324.1c-8.7,6.7-16.6,14.2-23.6,22.7c-2.7,3.3-5.3,6.8-7.7,10.4c-2,3-3.9,6-5.7,9.2
                c-2.1,3.7-4,7.4-5.9,11.4c-4.1,8.8-7.5,18.3-10.3,28.6h-33.4c-0.4-8.3-1.2-41.7,9.9-57.9c0.5-0.8,1.4-1.2,2.3-1.2
                s1.8,0.4,2.4,1.2l1.5,1.9c0.5,0.7,1.3,1.1,2.2,1.1c0.7,0,1.4-0.3,1.9-0.8l19.9-20.4l5.7-5.8c0.8-0.8,1.8-1.2,2.8-1.2
                c1.7,0,3.3,1,3.8,2.9l31.6-7.3c0.2-0.1,0.5-0.1,0.7-0.1C432.9,318.8,434.3,322.4,432,324.1z"/>
</svg>
